<svg width="100" height="106" viewBox="0 0 100 106" fill="none" xmlns="http://www.w3.org/2000/svg">
<path d="M14.1459 100.068V82.8565H21.3214C22.081 82.8565 22.7759 83.0181 23.4062 83.3414C24.0365 83.6484 24.5859 84.0686 25.0546 84.6019C25.5233 85.1191 25.8869 85.709 26.1455 86.3716C26.4041 87.018 26.5334 87.6806 26.5334 88.3594C26.5334 89.2967 26.3233 90.1937 25.9031 91.0502C25.4829 91.8906 24.893 92.5774 24.1334 93.1108C23.3739 93.6279 22.485 93.8865 21.4668 93.8865H16.3276V100.068H14.1459ZM16.3276 91.9472H21.3456C21.9436 91.9472 22.4608 91.7855 22.8971 91.4623C23.3496 91.1391 23.6971 90.7028 23.9395 90.1533C24.1981 89.6038 24.3274 89.0058 24.3274 88.3594C24.3274 87.6806 24.1819 87.0746 23.891 86.5413C23.6001 85.9918 23.2203 85.5635 22.7517 85.2565C22.283 84.9494 21.7658 84.7959 21.2002 84.7959H16.3276V91.9472ZM27.7742 96.4076C27.7742 95.5996 28.0005 94.9046 28.453 94.3228C28.9217 93.7249 29.56 93.2643 30.3681 92.9411C31.1761 92.6178 32.1135 92.4562 33.1801 92.4562C33.7458 92.4562 34.3437 92.5047 34.974 92.6017C35.6043 92.6825 36.1618 92.8118 36.6467 92.9895V92.0684C36.6467 91.0987 36.3558 90.3391 35.774 89.7896C35.1922 89.224 34.368 88.9412 33.3013 88.9412C32.6064 88.9412 31.9357 89.0705 31.2893 89.3291C30.659 89.5715 29.9883 89.927 29.2772 90.3957L28.5015 88.8927C29.3257 88.3271 30.1499 87.9069 30.9741 87.6321C31.7983 87.3412 32.6549 87.1958 33.5437 87.1958C35.1598 87.1958 36.4366 87.6483 37.3739 88.5533C38.3113 89.4422 38.7799 90.6866 38.7799 92.2865V97.6439C38.7799 97.9025 38.8284 98.0965 38.9254 98.2257C39.0385 98.3389 39.2163 98.4035 39.4587 98.4197V100.068C39.2486 100.1 39.0628 100.125 38.9011 100.141C38.7557 100.157 38.6345 100.165 38.5375 100.165C38.0365 100.165 37.6567 100.028 37.3982 99.753C37.1557 99.4782 37.0184 99.1873 36.9861 98.8803L36.9376 98.0803C36.3881 98.7914 35.6689 99.3409 34.7801 99.7287C33.8912 100.117 33.0104 100.311 32.1377 100.311C31.2973 100.311 30.5459 100.141 29.8832 99.8015C29.2206 99.4459 28.7035 98.9772 28.3318 98.3954C27.9601 97.7975 27.7742 97.1349 27.7742 96.4076ZM36.0164 97.3046C36.2103 97.0783 36.3639 96.8521 36.477 96.6258C36.5901 96.3834 36.6467 96.1814 36.6467 96.0198V94.444C36.1457 94.2501 35.6204 94.1047 35.071 94.0077C34.5215 93.8946 33.9801 93.838 33.4468 93.838C32.364 93.838 31.4832 94.0562 30.8044 94.4925C30.1418 94.9127 29.8105 95.4945 29.8105 96.2379C29.8105 96.642 29.9156 97.0379 30.1257 97.4258C30.3519 97.7975 30.6751 98.1045 31.0953 98.347C31.5317 98.5894 32.065 98.7106 32.6953 98.7106C33.3579 98.7106 33.9882 98.5813 34.5861 98.3227C35.1841 98.048 35.6608 97.7086 36.0164 97.3046ZM42.3704 103.51C42.5805 103.527 42.7905 103.543 43.0006 103.559C43.2107 103.591 43.3723 103.607 43.4855 103.607C43.7441 103.607 43.9703 103.519 44.1642 103.341C44.3582 103.163 44.5683 102.816 44.7945 102.298C45.0369 101.797 45.344 101.054 45.7157 100.068L40.3583 87.414H42.6128L46.8793 97.9106L50.7337 87.414H52.8428L46.6854 103.389C46.5399 103.761 46.3217 104.108 46.0308 104.432C45.7561 104.771 45.4006 105.038 44.9642 105.232C44.5279 105.426 44.0026 105.522 43.3885 105.522C43.2431 105.522 43.0895 105.514 42.9279 105.498C42.7825 105.482 42.5966 105.45 42.3704 105.401V103.51ZM61.5436 99.4378C61.3658 99.5186 61.1234 99.6237 60.8164 99.753C60.5093 99.8823 60.1538 99.9954 59.7497 100.092C59.3457 100.189 58.9174 100.238 58.4649 100.238C57.9478 100.238 57.471 100.149 57.0347 99.9711C56.5983 99.7772 56.2509 99.4863 55.9923 99.0984C55.7337 98.6944 55.6044 98.1934 55.6044 97.5955V89.0866H53.8832V87.414H55.6044V83.1959H57.7377V87.414H60.5739V89.0866H57.7377V96.9409C57.77 97.3935 57.9235 97.7328 58.1983 97.9591C58.473 98.1692 58.7962 98.2742 59.1679 98.2742C59.5881 98.2742 59.976 98.2015 60.3315 98.0561C60.6871 97.9106 60.9214 97.8056 61.0345 97.7409L61.5436 99.4378ZM68.9549 100.311C68.0014 100.311 67.1287 100.141 66.3368 99.8015C65.5611 99.4459 64.8823 98.9692 64.3005 98.3712C63.7349 97.7571 63.2905 97.0541 62.9672 96.2622C62.6602 95.4703 62.5067 94.6299 62.5067 93.741C62.5067 92.5451 62.7814 91.4542 63.3309 90.4684C63.8803 89.4826 64.6399 88.6907 65.6096 88.0927C66.5954 87.4948 67.7186 87.1958 68.9792 87.1958C70.2559 87.1958 71.3629 87.5029 72.3003 88.117C73.2538 88.7149 73.9891 89.5068 74.5063 90.4927C75.0396 91.4623 75.3063 92.5128 75.3063 93.6441C75.3063 93.8057 75.2982 93.9673 75.282 94.1289C75.282 94.2744 75.2739 94.3875 75.2578 94.4683H64.7611C64.8258 95.2925 65.052 96.0278 65.4399 96.6743C65.8439 97.3046 66.3611 97.8056 66.9914 98.1773C67.6216 98.5328 68.3004 98.7106 69.0277 98.7106C69.8034 98.7106 70.5306 98.5166 71.2094 98.1288C71.9043 97.7409 72.3811 97.2318 72.6397 96.6016L74.482 97.1106C74.2073 97.7248 73.7952 98.2742 73.2457 98.7591C72.7124 99.2439 72.074 99.6237 71.3306 99.8984C70.6034 100.173 69.8115 100.311 68.9549 100.311ZM64.6884 92.9895H73.3184C73.2538 92.1653 73.0195 91.4381 72.6154 90.8078C72.2114 90.1775 71.6942 89.6846 71.064 89.3291C70.4337 88.9735 69.7387 88.7957 68.9792 88.7957C68.2358 88.7957 67.5489 88.9735 66.9186 89.3291C66.2884 89.6846 65.7712 90.1775 65.3672 90.8078C64.9793 91.4381 64.753 92.1653 64.6884 92.9895ZM78.1495 87.414L81.4949 92.0684L81.6888 92.4562L81.907 92.0684L85.2281 87.414H87.6038L82.9251 93.7653L87.628 100.068H85.2523L81.907 95.438L81.6888 95.0743L81.4949 95.438L78.1495 100.068H75.7738L80.4767 93.7653L75.7981 87.414H78.1495Z" fill="#005AFF"/>
<path fill-rule="evenodd" clip-rule="evenodd" d="M34.0913 7.56565L7.58928 33.9987L34.0913 60.4318L60.5933 33.9987L52.6608 26.0869L58.0241 20.7368L65.9569 28.649C68.9192 31.6036 68.9192 36.3939 65.9569 39.3485L39.4549 65.7815C36.4927 68.7361 31.6899 68.7361 28.7276 65.7815L2.22561 39.3485C-0.736661 36.3939 -0.736663 31.6036 2.22561 28.649L28.7276 2.21593C31.6899 -0.738642 36.4927 -0.738643 39.4549 2.21593L47.9743 10.7131L42.7074 16.1594L34.0913 7.56565Z" fill="#3A7FFF"/>
<path fill-rule="evenodd" clip-rule="evenodd" d="M65.9087 60.4326L92.4107 33.9996L65.9087 7.56648L39.4067 33.9996L47.3392 41.9114L41.9759 47.2615L34.0431 39.3493C31.0808 36.3947 31.0808 31.6044 34.0431 28.6498L60.5451 2.21676C63.5073 -0.737808 68.3101 -0.737808 71.2724 2.21676L97.7744 28.6498C100.737 31.6044 100.737 36.3947 97.7744 39.3493L71.2724 65.7824C68.3101 68.7369 63.5073 68.7369 60.5451 65.7824L52.0257 57.2852L57.2926 51.8389L65.9087 60.4326Z" fill="#005AFF"/>
</svg>
