<svg width="100" height="68" viewBox="0 0 100 68" fill="none" xmlns="http://www.w3.org/2000/svg">
<path fill-rule="evenodd" clip-rule="evenodd" d="M34.0888 7.56543L7.5856 33.9981L34.0888 60.4308L60.5919 33.9981L52.66 26.0872L58.0235 20.7374L65.9558 28.6486C68.9181 31.603 68.9181 36.3932 65.9558 39.3477L39.4526 65.7804C36.4902 68.7349 31.6873 68.7349 28.7249 65.7804L2.22177 39.3477C-0.740592 36.3932 -0.740589 31.603 2.22177 28.6486L28.7249 2.21586C31.6873 -0.738623 36.4902 -0.738619 39.4526 2.21586L47.9731 10.7138L42.7061 16.1598L34.0888 7.56543Z" fill="#3A7FFF"/>
<path fill-rule="evenodd" clip-rule="evenodd" d="M65.9112 60.4318L92.4144 33.9991L65.9112 7.56638L39.4081 33.9991L47.3399 41.9098L41.9764 47.2597L34.0442 39.3486C31.0819 36.3942 31.0819 31.604 34.0442 28.6495L60.5474 2.21681C63.5098 -0.737671 68.3127 -0.737671 71.2751 2.21682L97.7782 28.6495C100.741 31.604 100.741 36.3942 97.7782 39.3486L71.2751 65.7813C68.3127 68.7358 63.5098 68.7358 60.5474 65.7813L52.0267 57.2833L57.2938 51.8373L65.9112 60.4318Z" fill="#005AFF"/>
</svg>
